<?xml version="1.0"?>
<svg xmlns="http://www.w3.org/2000/svg" xmlns:xlink="http://www.w3.org/1999/xlink" version="1.1" id="Capa_1" x="0px" y="0px" viewBox="0 0 512 512" style="enable-background:new 0 0 512 512;" xml:space="preserve" width="512px" height="512px" class=""><g><circle style="fill:#FCD748;" cx="256" cy="256" r="256" data-original="#FCD748" class=""/><path style="fill:#363330" d="M512,256c0-13.463-1.046-26.681-3.048-39.582L396.053,103.519l-85.124,10.719l1.786,78.976  l-71.048-71.048l-108.417,34.45l61.607,61.801L84.5,262l-9.039,96.235L227.656,510.43c9.308,1.025,18.762,1.57,28.344,1.57  c43.648,0,84.737-10.935,120.698-30.198l2.388-2.388l0.702,0.702C458.619,436.482,512,352.481,512,256z" data-original="#FABF40" class="" data-old_color="#D88634"/><path style="fill:#595959;" d="M144.458,392.333c-47.949,0-86.958-39.009-86.958-86.958s39.009-86.958,86.958-86.958  s86.958,39.009,86.958,86.958C231.417,353.324,192.407,392.333,144.458,392.333z M144.458,245.417  c-33.061,0-59.958,26.897-59.958,59.958s26.897,59.958,59.958,59.958s59.958-26.897,59.958-59.958S177.52,245.417,144.458,245.417z" data-original="#595959"/><path style="fill:#8200FF" d="M367.046,392.333c-47.949,0-86.958-39.009-86.958-86.958s39.009-86.958,86.958-86.958  s86.958,39.009,86.958,86.958S414.995,392.333,367.046,392.333z M367.046,245.417c-33.061,0-59.958,26.897-59.958,59.958  s26.897,59.958,59.958,59.958s59.958-26.897,59.958-59.958S400.107,245.417,367.046,245.417z" data-original="#303030" class="active-path" data-old_color="#303030"/><path style="fill:#EC5353;" d="M318.175,167.5h-96.847l-21.204-38.364l-23.631,13.061l21.443,38.795L132.65,298.833l14.959,19.669  l121.529-29.167l8.688-6.638l52.187-95.208L318.175,167.5z M213.35,208.882l32.244,58.337l-74.465,17.872L213.35,208.882z   M265.939,248.212L236.251,194.5h59.129L265.939,248.212z" data-original="#EC5353" class=""/><polygon style="fill:#D13135;" points="318.175,167.5 255.571,167.5 255.571,194.5 295.38,194.5 265.939,248.212 255.571,229.455   255.571,292.591 269.138,289.335 277.826,282.697 330.013,187.489 " data-original="#D13135" class=""/><path style="fill:#2789E1;" d="M157.04,169.384l-23.79-12.768l1.193-2.224c10.666-19.877,31.305-32.226,53.864-32.226h53.359v27  h-53.359c-12.595,0-24.119,6.894-30.074,17.992L157.04,169.384z" data-original="#2789E1" class=""/><path style="fill:#1D67BC" d="M352.304,305.612L281.255,93H371c19.391,0,35.167,15.776,35.167,35.167S390.392,163.334,371,163.334  h-7.667v-27H371c4.503,0,8.167-3.664,8.167-8.167c0-4.503-3.664-8.167-8.167-8.167h-52.255l59.167,177.055L352.304,305.612z" data-original="#1D67BC" class=""/></g> </svg>
